<svg xmlns="http://www.w3.org/2000/svg" viewBox="0 0 460 820" width="460" height="820">
  <defs>
    <marker id="arrow" viewBox="0 0 10 10" refX="10" refY="5" markerWidth="8" markerHeight="8" orient="auto-start-reverse">
      <path d="M 0 0 L 10 5 L 0 10 z" fill="#333"/>
    </marker>
    <style>
      text { font-family: Arial, sans-serif; font-size: 13px; fill: white; text-anchor: middle; dominant-baseline: central; }
      .label { fill: #555; font-size: 11px; }
      line, polyline { stroke: #333; stroke-width: 1.5; marker-end: url(#arrow); fill: none; }
    </style>
  </defs>

  <!-- Title -->
  <text x="230" y="20" fill="#333" font-size="16" font-weight="bold">/loop-review</text>

  <!-- Step 0: Session Setup -->
  <rect x="140" y="40" width="180" height="40" rx="4" fill="#6C757D"/>
  <text x="230" y="60">Session Setup</text>
  <line x1="230" y1="80" x2="230" y2="110"/>

  <!-- Step 1: Partition Repo -->
  <rect x="140" y="110" width="180" height="40" rx="4" fill="#4A90D9"/>
  <text x="230" y="130">Partition Repository</text>
  <line x1="230" y1="150" x2="230" y2="180"/>

  <!-- Step 2: Init Deferred Doc -->
  <rect x="120" y="180" width="220" height="40" rx="4" fill="#4A90D9"/>
  <text x="230" y="200">Init Deferred Suggestions</text>
  <line x1="230" y1="220" x2="230" y2="250"/>

  <!-- Loop start label -->
  <text x="230" y="248" fill="#555" font-size="11">Per-Slice Loop</text>
  <rect x="55" y="255" width="350" height="330" rx="8" fill="none" stroke="#999" stroke-width="1" stroke-dasharray="5,3"/>

  <!-- Step 3c: Launch Reviewers -->
  <rect x="80" y="270" width="300" height="36" rx="4" fill="#17A2B8" stroke="#17A2B8" stroke-width="3"/>
  <text x="230" y="288">Reviewers (2 Claude + 2 Codex + Cursor)</text>
  <line x1="230" y1="306" x2="230" y2="326"/>

  <!-- Step 3d: Classify Findings -->
  <rect x="130" y="326" width="200" height="36" rx="4" fill="#4A90D9"/>
  <text x="230" y="344">Classify Findings</text>
  <line x1="230" y1="362" x2="230" y2="382"/>

  <!-- Decision: Implement or Defer -->
  <polygon points="230,382 320,412 230,442 140,412" fill="#F0AD4E"/>
  <text x="230" y="410" font-size="12">Implement</text>
  <text x="230" y="424" font-size="12">or defer?</text>

  <!-- Defer arrow -->
  <text x="335" y="407" class="label">defer</text>
  <polyline points="320,412 370,412 370,460 300,460" stroke="#333" stroke-width="1.5" fill="none" marker-end="url(#arrow)"/>

  <!-- Implement arrow -->
  <text x="120" y="407" class="label">implement</text>
  <line x1="140" y1="412" x2="90" y2="412" marker-end="none"/>
  <line x1="90" y1="412" x2="90" y2="460" marker-end="none"/>
  <line x1="90" y1="460" x2="130" y2="460" marker-end="url(#arrow)"/>

  <!-- Batch accumulate -->
  <rect x="130" y="445" width="200" height="36" rx="4" fill="#4A90D9"/>
  <text x="230" y="463">Accumulate Batch</text>
  <line x1="230" y1="481" x2="230" y2="501"/>

  <!-- Decision: Flush batch? -->
  <polygon points="230,501 310,531 230,561 150,531" fill="#F0AD4E"/>
  <text x="230" y="529" font-size="12">Flush via</text>
  <text x="230" y="543" font-size="10">/implement-and-merge?</text>

  <!-- Yes arrow -->
  <text x="215" y="550" class="label">yes</text>

  <!-- Next slice arrow -->
  <text x="325" y="526" class="label">next slice</text>
  <polyline points="310,531 380,531 380,288 370,288" fill="none" marker-end="url(#arrow)"/>

  <line x1="230" y1="561" x2="230" y2="600"/>

  <!-- /implement-and-merge invocation -->
  <rect x="90" y="600" width="280" height="36" rx="4" fill="#7B68EE"/>
  <text x="230" y="618" font-size="11">Flush Batch (/implement-and-merge)</text>

  <!-- Loop back to next slice after flush -->
  <polyline points="370,618 395,618 395,288 370,288" fill="none" marker-end="url(#arrow)"/>
  <text x="410" y="450" class="label" style="writing-mode: tb;">resume</text>

  <line x1="230" y1="636" x2="230" y2="666"/>

  <!-- Step 4: Final Deferred Commit -->
  <rect x="120" y="666" width="220" height="36" rx="4" fill="#4A90D9"/>
  <text x="230" y="684">Final Deferred Commit</text>
  <line x1="230" y1="702" x2="230" y2="722"/>

  <!-- Step 5: Final Summary -->
  <rect x="140" y="722" width="180" height="36" rx="4" fill="#4A90D9"/>
  <text x="230" y="740">Final Summary</text>
  <line x1="230" y1="758" x2="230" y2="778"/>

  <!-- Step 6: Cleanup -->
  <rect x="140" y="778" width="180" height="36" rx="4" fill="#6C757D"/>
  <text x="230" y="796">Cleanup</text>
</svg>
